REM DIRINDEX 1\2\6,1\2\7,1\2\8,1\2\9,1\3\10,1\3\11,1\4\12,1\4\13,1\4\14,1\5\15,1\5\16,1\5\17
REM DIRNAME folder01,folder02,folder03,folder04,folder05,folder06,folder07,folder08,folder09,folder10,folder11,folder12,folder13,folder14,folder15,folder16,folder17
TITLE ""
FILE "1400_3_sec05_0483_0500.mp3" MP3
  TRACK 01 AUDIO
    TITLE "0:"
    INDEX 01 00:00:00
  TRACK 02 AUDIO
    TITLE "17:cjc029_5396"
    INDEX 01 00:00:15
  TRACK 03 AUDIO
    TITLE "0:"
    INDEX 01 00:01:36
  TRACK 04 AUDIO
    TITLE "16:cjc029_5397"
    INDEX 01 00:01:40
  TRACK 05 AUDIO
    TITLE "0:"
    INDEX 01 00:02:69
  TRACK 06 AUDIO
    TITLE "17:cjc029_5398"
    INDEX 01 00:03:55
  TRACK 07 AUDIO
    TITLE "0:"
    INDEX 01 00:05:03
  TRACK 08 AUDIO
    TITLE "16:cjc029_5399"
    INDEX 01 00:05:09
  TRACK 09 AUDIO
    TITLE "0:"
    INDEX 01 00:06:16
  TRACK 10 AUDIO
    TITLE "17:cjc029_5400"
    INDEX 01 00:06:73
  TRACK 11 AUDIO
    TITLE "0:"
    INDEX 01 00:08:36
  TRACK 12 AUDIO
    TITLE "16:cjc029_5401"
    INDEX 01 00:08:44
  TRACK 13 AUDIO
    TITLE "0:"
    INDEX 01 00:09:49
  TRACK 14 AUDIO
    TITLE "17:cjc029_5402"
    INDEX 01 00:10:33
  TRACK 15 AUDIO
    TITLE "0:"
    INDEX 01 00:12:69
  TRACK 16 AUDIO
    TITLE "16:cjc029_5403"
    INDEX 01 00:12:73
  TRACK 17 AUDIO
    TITLE "0:"
    INDEX 01 00:14:00
  TRACK 18 AUDIO
    TITLE "17:cjc029_5404"
    INDEX 01 00:14:56
  TRACK 19 AUDIO
    TITLE "0:"
    INDEX 01 00:17:51
  TRACK 20 AUDIO
    TITLE "16:cjc029_5405"
    INDEX 01 00:17:55
  TRACK 21 AUDIO
    TITLE "0:"
    INDEX 01 00:18:68
  TRACK 22 AUDIO
    TITLE "17:cjc029_5406"
    INDEX 01 00:19:50
  TRACK 23 AUDIO
    TITLE "0:"
    INDEX 01 00:20:69
  TRACK 24 AUDIO
    TITLE "16:cjc029_5407"
    INDEX 01 00:20:73
  TRACK 25 AUDIO
    TITLE "0:"
    INDEX 01 00:22:01
  TRACK 26 AUDIO
    TITLE "17:cjc029_5408"
    INDEX 01 00:22:60
  TRACK 27 AUDIO
    TITLE "0:"
    INDEX 01 00:24:22
  TRACK 28 AUDIO
    TITLE "16:cjc029_5409"
    INDEX 01 00:24:25
  TRACK 29 AUDIO
    TITLE "0:"
    INDEX 01 00:25:37
  TRACK 30 AUDIO
    TITLE "17:cjc029_5410"
    INDEX 01 00:26:20
  TRACK 31 AUDIO
    TITLE "0:"
    INDEX 01 00:27:51
  TRACK 32 AUDIO
    TITLE "16:cjc029_5411"
    INDEX 01 00:27:57
  TRACK 33 AUDIO
    TITLE "0:"
    INDEX 01 00:28:64
  TRACK 34 AUDIO
    TITLE "17:cjc029_5412"
    INDEX 01 00:29:48
  TRACK 35 AUDIO
    TITLE "0:"
    INDEX 01 00:30:69
  TRACK 36 AUDIO
    TITLE "16:cjc029_5413"
    INDEX 01 00:31:00
  TRACK 37 AUDIO
    TITLE "0:"
    INDEX 01 00:32:09
  TRACK 38 AUDIO
    TITLE "17:cjc029_5414"
    INDEX 01 00:32:70
  TRACK 39 AUDIO
    TITLE "0:"
    INDEX 01 00:34:12
  TRACK 40 AUDIO
    TITLE "16:cjc029_5415"
    INDEX 01 00:34:22
  TRACK 41 AUDIO
    TITLE "0:"
    INDEX 01 00:35:27
  TRACK 42 AUDIO
    TITLE "17:cjc029_5416"
    INDEX 01 00:36:13
  TRACK 43 AUDIO
    TITLE "0:"
    INDEX 01 00:37:40
  TRACK 44 AUDIO
    TITLE "16:cjc029_5417"
    INDEX 01 00:37:44
  TRACK 45 AUDIO
    TITLE "0:"
    INDEX 01 00:38:73
  TRACK 46 AUDIO
    TITLE "17:cjc029_5418"
    INDEX 01 00:39:54
  TRACK 47 AUDIO
    TITLE "0:"
    INDEX 01 00:40:66
  TRACK 48 AUDIO
    TITLE "16:cjc029_5419"
    INDEX 01 00:40:72
  TRACK 49 AUDIO
    TITLE "0:"
    INDEX 01 00:42:33
  TRACK 50 AUDIO
    TITLE "17:cjc029_5420"
    INDEX 01 00:43:19
  TRACK 51 AUDIO
    TITLE "0:"
    INDEX 01 00:45:45
  TRACK 52 AUDIO
    TITLE "16:cjc029_5421"
    INDEX 01 00:45:51
  TRACK 53 AUDIO
    TITLE "0:"
    INDEX 01 00:46:56
  TRACK 54 AUDIO
    TITLE "17:cjc029_5422"
    INDEX 01 00:47:38
  TRACK 55 AUDIO
    TITLE "0:"
    INDEX 01 00:50:21
  TRACK 56 AUDIO
    TITLE "16:cjc029_5423"
    INDEX 01 00:50:29
  TRACK 57 AUDIO
    TITLE "0:"
    INDEX 01 00:51:28
  TRACK 58 AUDIO
    TITLE "17:cjc029_5424"
    INDEX 01 00:52:16
  TRACK 59 AUDIO
    TITLE "0:"
    INDEX 01 00:53:27
  TRACK 60 AUDIO
    TITLE "16:cjc029_5425"
    INDEX 01 00:53:33
  TRACK 61 AUDIO
    TITLE "0:"
    INDEX 01 00:54:34
  TRACK 62 AUDIO
    TITLE "17:cjc029_5426"
    INDEX 01 00:55:18
  TRACK 63 AUDIO
    TITLE "0:"
    INDEX 01 00:58:42
  TRACK 64 AUDIO
    TITLE "16:cjc029_5427"
    INDEX 01 00:58:48
  TRACK 65 AUDIO
    TITLE "0:"
    INDEX 01 00:59:51
  TRACK 66 AUDIO
    TITLE "17:cjc029_5428"
    INDEX 01 01:00:39
  TRACK 67 AUDIO
    TITLE "0:"
    INDEX 01 01:02:01
  TRACK 68 AUDIO
    TITLE "16:cjc029_5429"
    INDEX 01 01:02:05
  TRACK 69 AUDIO
    TITLE "0:"
    INDEX 01 01:03:18
  TRACK 70 AUDIO
    TITLE "17:cjc029_5430"
    INDEX 01 01:04:01
  TRACK 71 AUDIO
    TITLE "0:"
    INDEX 01 01:05:28
  TRACK 72 AUDIO
    TITLE "16:cjc029_5431"
    INDEX 01 01:05:30
  TRACK 73 AUDIO
    TITLE "0:"
    INDEX 01 01:06:30
